<svg width="79" height="70" viewBox="0 0 79 70" fill="none" xmlns="http://www.w3.org/2000/svg">
<path d="M32.4025 52.229H15.8891C4.81831 52.229 2.05881 49.3065 2.05881 37.5816V16.7063C2.05881 4.98138 4.81831 2.05884 15.8891 2.05884H54.5441C65.615 2.05884 68.3745 4.98138 68.3745 16.7063" stroke="white" stroke-width="2" stroke-linecap="round" stroke-linejoin="round"/>
<path d="M34.4255 67.9525V52.2266" stroke="white" stroke-width="2" stroke-linecap="round" stroke-linejoin="round"/>
<path opacity="0.4" d="M2.05881 38.3135H29.8924" stroke="white" stroke-width="2" stroke-linecap="round" stroke-linejoin="round"/>
<path d="M23.0837 67.9562H34.426" stroke="white" stroke-width="2" stroke-linecap="round" stroke-linejoin="round"/>
<path d="M76.1764 37.7889V57.6553C76.1764 65.9009 74.1236 67.9538 65.8778 67.9538H53.5267C45.2809 67.9538 43.2283 65.9009 43.2283 57.6553V37.7889C43.2283 29.5433 45.2809 27.4905 53.5267 27.4905H65.8778C74.1236 27.4905 76.1764 29.5433 76.1764 37.7889Z" stroke="white" stroke-width="2" stroke-linecap="round" stroke-linejoin="round"/>
<path opacity="0.4" d="M59.6311 56.752H59.6462" stroke="white" stroke-width="2" stroke-linecap="round" stroke-linejoin="round"/>
</svg>
