<svg width="733" height="714" viewBox="0 0 733 714" fill="none" xmlns="http://www.w3.org/2000/svg">
<g filter="url(#filter0_f_173_197)">
<circle cx="380.5" cy="352.5" r="117.5" fill="#0049F3"/>
<circle cx="380.5" cy="352.5" r="97.5" stroke="#E4FF02" stroke-width="40"/>
</g>
<path fill-rule="evenodd" clip-rule="evenodd" d="M471.786 67C471.786 58.1634 464.623 51 455.786 51H285.043C276.206 51 269.043 58.1635 269.043 67V227.174C269.043 236.01 261.879 243.174 253.043 243.174H92.8672C84.0306 243.174 76.8672 250.337 76.8672 259.174V429.917C76.8672 438.754 84.0306 445.917 92.8672 445.917H253.039C261.876 445.917 269.039 453.081 269.039 461.917V620.169C269.039 629.006 276.202 636.169 285.039 636.169H455.783C464.619 636.169 471.783 629.006 471.783 620.169V460.957C471.783 452.12 478.946 444.957 487.783 444.957H646.997C655.834 444.957 662.997 437.793 662.997 428.957V258.213C662.997 249.377 655.834 242.213 646.997 242.213H487.786C478.95 242.213 471.786 235.05 471.786 226.213V67ZM444.254 434.387C453.09 434.387 460.254 427.223 460.254 418.387V269.743C460.254 260.907 453.091 253.743 444.254 253.743H295.611C286.774 253.743 279.611 260.907 279.611 269.743V418.387C279.611 427.223 286.774 434.387 295.611 434.387H444.254Z" fill="#101010"/>
<path fill-rule="evenodd" clip-rule="evenodd" d="M276.896 319.709C276.896 310.872 269.732 303.709 260.896 303.709H150.742C141.906 303.709 134.742 310.872 134.742 319.709V422.451C134.742 431.288 127.579 438.451 118.742 438.451H16C7.16344 438.451 0 445.615 0 454.451V564.605C0 573.441 7.16344 580.605 16 580.605H118.742C127.579 580.605 134.742 587.768 134.742 596.605V698C134.742 706.837 141.906 714 150.742 714H260.896C269.732 714 276.896 706.837 276.896 698V595.931C276.896 587.094 284.059 579.931 292.896 579.931H394.966C403.803 579.931 410.966 572.767 410.966 563.931V453.777C410.966 444.941 403.803 437.777 394.966 437.777H292.896C284.059 437.777 276.896 430.614 276.896 421.777V319.709ZM252.812 572.521C261.649 572.521 268.812 565.357 268.812 556.521V461.862C268.812 453.026 261.649 445.862 252.812 445.862H158.154C149.317 445.862 142.153 453.026 142.153 461.862V556.52C142.153 565.357 149.317 572.521 158.153 572.521H252.812Z" fill="#101010"/>
<path fill-rule="evenodd" clip-rule="evenodd" d="M608.396 319.709C608.396 310.872 601.232 303.709 592.396 303.709H482.242C473.406 303.709 466.242 310.872 466.242 319.709V422.451C466.242 431.288 459.079 438.451 450.242 438.451H347.5C338.663 438.451 331.5 445.615 331.5 454.451V564.605C331.5 573.441 338.663 580.605 347.5 580.605H450.242C459.079 580.605 466.242 587.768 466.242 596.605V698C466.242 706.837 473.406 714 482.242 714H592.396C601.232 714 608.396 706.837 608.396 698V596C608.396 587.163 615.559 580 624.396 580H689.25C698.087 580 705.25 572.837 705.25 564V454C705.25 445.163 698.087 438 689.25 438H624.396C615.559 438 608.396 430.837 608.396 422V319.709ZM584.25 572.521C593.087 572.521 600.25 565.357 600.25 556.521V461.862C600.25 453.026 593.087 445.862 584.25 445.862H489.654C480.817 445.862 473.653 453.026 473.653 461.862V556.52C473.653 565.357 480.817 572.521 489.653 572.521H584.25Z" fill="#101010"/>
<defs>
<filter id="filter0_f_173_197" x="28" y="0" width="705" height="705" filterUnits="userSpaceOnUse" color-interpolation-filters="sRGB">
<feFlood flood-opacity="0" result="BackgroundImageFix"/>
<feBlend mode="normal" in="SourceGraphic" in2="BackgroundImageFix" result="shape"/>
<feGaussianBlur stdDeviation="117.5" result="effect1_foregroundBlur_173_197"/>
</filter>
</defs>
</svg>
