<svg width="522" height="522" viewBox="0 0 522 522" fill="none" xmlns="http://www.w3.org/2000/svg">
<g clip-path="url(#clip0_2611_767)">
<mask id="mask0_2611_767" style="mask-type:luminance" maskUnits="userSpaceOnUse" x="0" y="0" width="522" height="522">
<path d="M522 0H0V522H522V0Z" fill="white"/>
</mask>
<g mask="url(#mask0_2611_767)">
<mask id="mask1_2611_767" style="mask-type:alpha" maskUnits="userSpaceOnUse" x="0" y="0" width="522" height="522">
<path d="M522 0H0V522H522V0Z" fill="#A1CCC9"/>
</mask>
<g mask="url(#mask1_2611_767)">
<path opacity="0.0344828" d="M410.27 692.627C407.902 695.117 404.422 696.717 399.744 697.338C395.051 697.963 389.264 697.586 382.48 696.208C368.919 693.452 351.72 686.759 332.017 676.656C292.642 656.464 243.603 622.811 194.272 580.475C144.938 538.139 104.727 495.2 79.5858 460.028C67.0085 442.431 58.256 426.85 53.9921 414.308C51.8602 408.038 50.8787 402.604 51.0563 398.106C51.2309 393.62 52.5519 390.166 54.9173 387.675C57.2847 385.187 60.7657 383.589 65.4432 382.966C70.1363 382.342 75.9224 382.718 82.7061 384.097C96.2689 386.854 113.468 393.545 133.169 403.648C172.544 423.842 221.584 457.493 270.914 499.829C320.249 542.165 360.461 585.104 385.601 620.276C398.178 637.873 406.931 653.454 411.196 665.996C413.327 672.268 414.308 677.7 414.131 682.198C413.957 686.684 412.636 690.138 410.27 692.627Z" stroke="#DDDDDD" stroke-width="1.5"/>
<path opacity="0.0689655" d="M394.447 709.117C391.878 711.407 388.285 712.714 383.598 712.946C378.898 713.18 373.205 712.323 366.617 710.381C353.445 706.498 337.03 698.382 318.453 686.65C281.32 663.199 235.852 625.498 190.883 579.1C145.915 532.699 110.031 486.455 88.3543 449.226C77.5111 430.6 70.2681 414.304 67.1931 401.422C65.6545 394.979 65.1782 389.468 65.7641 384.991C66.3471 380.524 67.9686 377.183 70.5383 374.891C73.1054 372.602 76.6984 371.295 81.3863 371.061C86.0874 370.831 91.7806 371.687 98.3668 373.628C111.541 377.51 127.955 385.628 146.533 397.359C183.665 420.811 229.133 458.51 274.102 504.911C319.068 551.309 354.955 597.553 376.629 634.784C387.474 653.411 394.717 669.704 397.793 682.589C399.33 689.031 399.807 694.541 399.22 699.019C398.637 703.485 397.017 706.826 394.447 709.117Z" stroke="#DDDDDD" stroke-width="1.5"/>
<path opacity="0.103448" d="M377.437 724.322C374.685 726.395 371.011 727.402 366.351 727.243C361.678 727.085 356.121 725.755 349.778 723.265C337.097 718.29 321.592 708.811 304.276 695.542C269.667 669.017 228.107 627.561 187.832 577.455C147.559 527.346 116.261 478.152 98.2035 439.146C89.1697 419.632 83.4864 402.748 81.6156 389.619C80.6803 383.054 80.7133 377.509 81.699 373.082C82.6839 368.669 84.5937 365.465 87.345 363.391C90.0967 361.316 93.7712 360.31 98.4287 360.466C103.102 360.626 108.66 361.958 115 364.446C127.684 369.421 143.188 378.9 160.504 392.17C195.115 418.694 236.675 460.15 276.948 510.257C317.22 560.365 348.518 609.559 366.577 648.565C375.612 668.079 381.296 684.963 383.164 698.092C384.099 704.659 384.068 710.203 383.08 714.629C382.095 719.042 380.187 722.246 377.437 724.322Z" stroke="#DDDDDD" stroke-width="1.5"/>
<path opacity="0.137931" d="M359.376 738.142C356.465 739.987 352.737 740.686 348.142 740.138C343.534 739.591 338.155 737.798 332.107 734.782C320.011 728.752 305.532 717.988 289.609 703.283C257.778 673.891 220.43 628.999 185.145 575.568C149.857 522.137 123.366 470.369 109.05 429.885C101.887 409.63 97.8011 392.285 97.1468 379.008C96.82 372.37 97.3547 366.831 98.7337 362.489C100.11 358.162 102.291 355.12 105.202 353.275C108.113 351.432 111.841 350.734 116.437 351.279C121.045 351.826 126.423 353.619 132.471 356.636C144.567 362.666 159.045 373.432 174.97 388.134C206.799 417.526 244.147 462.42 279.434 515.849C314.719 569.281 341.21 621.05 355.525 661.534C362.689 681.788 366.775 699.134 367.429 712.411C367.758 719.05 367.222 724.586 365.843 728.928C364.466 733.257 362.288 736.299 359.376 738.142Z" stroke="#DDDDDD" stroke-width="1.5"/>
<path opacity="0.172414" d="M340.414 750.488C337.367 752.087 333.616 752.476 329.121 751.545C324.612 750.611 319.455 748.37 313.745 744.851C302.328 737.815 288.985 725.848 274.568 709.823C245.752 677.792 212.886 629.807 182.837 573.462C152.787 517.118 131.287 463.167 120.804 421.513C115.558 400.675 113.094 382.999 113.652 369.675C113.931 363.013 114.964 357.523 116.723 353.302C118.479 349.09 120.911 346.232 123.96 344.633C127.006 343.033 130.757 342.646 135.253 343.577C139.762 344.509 144.919 346.75 150.628 350.267C162.044 357.307 175.389 369.272 189.806 385.297C218.621 417.328 251.487 465.314 281.536 521.658C311.587 578.002 333.086 631.951 343.57 673.605C348.815 694.445 351.279 712.121 350.721 725.445C350.442 732.107 349.409 737.595 347.65 741.82C345.893 746.03 343.462 748.888 340.414 750.488Z" stroke="#DDDDDD" stroke-width="1.5"/>
<path opacity="0.206897" d="M320.715 761.28C317.556 762.622 313.81 762.696 309.451 761.391C305.075 760.081 300.179 757.409 294.851 753.415C284.199 745.427 272.086 732.35 259.283 715.127C233.692 680.702 205.54 629.996 180.933 571.169C156.324 512.343 139.953 456.626 133.364 414.117C130.067 392.852 129.231 374.98 130.992 361.71C131.872 355.075 133.391 349.677 135.514 345.602C137.632 341.541 140.297 338.888 143.454 337.545C146.613 336.202 150.359 336.128 154.721 337.433C159.095 338.742 163.991 341.415 169.319 345.409C179.971 353.398 192.084 366.475 204.885 383.697C230.478 418.122 258.63 468.826 283.237 527.654C307.845 586.481 324.216 642.199 330.806 684.706C334.102 705.973 334.939 723.845 333.178 737.113C332.298 743.747 330.779 749.147 328.655 753.221C326.538 757.283 323.872 759.937 320.715 761.28Z" stroke="#DDDDDD" stroke-width="1.5"/>
<path opacity="0.241379" d="M300.449 770.45C297.204 771.529 293.494 771.289 289.302 769.617C285.093 767.941 280.496 764.861 275.589 760.421C265.781 751.543 254.99 737.458 243.888 719.172C221.701 682.618 198.456 629.579 179.447 568.719C160.436 507.859 149.292 450.799 146.62 407.765C145.283 386.231 146.074 368.3 149.014 355.187C150.486 348.628 152.475 343.359 154.942 339.466C157.403 335.583 160.277 333.157 163.521 332.078C166.766 331 170.473 331.241 174.668 332.912C178.876 334.588 183.474 337.669 188.379 342.108C198.187 350.986 208.978 365.071 220.079 383.359C242.268 419.911 265.515 472.952 284.523 533.81C303.531 594.67 314.678 651.73 317.349 694.766C318.687 716.297 317.895 734.231 314.955 747.344C313.483 753.901 311.494 759.17 309.028 763.063C306.565 766.946 303.693 769.374 300.449 770.45Z" stroke="#DDDDDD" stroke-width="1.5"/>
<path opacity="0.275862" d="M279.79 777.949C276.487 778.754 272.842 778.201 268.848 776.178C264.841 774.148 260.574 770.683 256.126 765.833C247.23 756.135 237.834 741.148 228.51 721.937C209.877 683.536 191.682 628.567 178.379 566.14C165.078 503.714 159.206 445.745 160.446 402.505C161.066 380.873 163.464 363.017 167.553 350.158C169.595 343.726 172.038 338.627 174.827 334.944C177.609 331.27 180.668 329.085 183.973 328.282C187.276 327.478 190.921 328.028 194.915 330.052C198.922 332.082 203.19 335.549 207.637 340.398C216.531 350.096 225.929 365.081 235.249 384.293C253.887 422.694 272.081 477.662 285.381 540.09C298.685 602.518 304.555 660.485 303.318 703.724C302.697 725.357 300.3 743.215 296.21 756.074C294.165 762.503 291.726 767.603 288.936 771.287C286.153 774.959 283.092 777.145 279.79 777.949Z" stroke="#DDDDDD" stroke-width="1.5"/>
<path opacity="0.310345" d="M258.925 783.745C255.588 784.271 252.036 783.41 248.271 781.05C244.492 778.685 240.588 774.86 236.626 769.637C228.706 759.193 220.768 743.42 213.28 723.431C198.313 683.474 185.272 626.994 177.735 563.472C170.199 499.95 169.605 441.511 174.716 398.396C177.272 376.826 181.246 359.179 186.444 346.669C189.04 340.414 191.913 335.523 195.001 332.076C198.079 328.642 201.3 326.714 204.637 326.19C207.974 325.667 211.525 326.523 215.293 328.885C219.069 331.25 222.977 335.075 226.937 340.299C234.855 350.742 242.797 366.514 250.285 386.505C265.252 426.461 278.293 482.942 285.829 546.464C293.366 609.984 293.958 668.423 288.848 711.538C286.292 733.109 282.316 750.756 277.121 763.265C274.522 769.52 271.651 774.41 268.564 777.857C265.484 781.293 262.262 783.219 258.925 783.745Z" stroke="#DDDDDD" stroke-width="1.5"/>
<path opacity="0.344828" d="M237.991 787.835C234.643 788.078 231.207 786.919 227.695 784.24C224.17 781.555 220.651 777.402 217.203 771.845C210.309 760.734 203.872 744.293 198.263 723.676C187.045 682.463 179.217 624.895 177.464 560.75C175.712 496.607 180.369 438.133 189.292 395.46C193.756 374.11 199.269 356.805 205.531 344.74C208.662 338.706 211.941 334.058 215.304 330.874C218.657 327.697 222.018 326.045 225.366 325.802C228.712 325.561 232.146 326.722 235.66 329.396C239.184 332.082 242.705 336.236 246.15 341.793C253.046 352.904 259.481 369.344 265.093 389.963C276.309 431.176 284.139 488.743 285.892 552.886C287.644 617.029 282.985 675.504 274.063 718.177C269.599 739.526 264.084 756.833 257.821 768.899C254.691 774.932 251.413 779.58 248.049 782.764C244.696 785.939 241.339 787.592 237.991 787.835Z" stroke="#DDDDDD" stroke-width="1.5"/>
<path opacity="0.37931" d="M217.053 790.256C213.712 790.216 210.415 788.765 207.175 785.792C203.924 782.807 200.812 778.356 197.896 772.508C192.064 760.811 187.166 743.825 183.461 722.729C176.056 680.562 173.479 622.323 177.512 558.023C181.544 493.72 191.417 435.631 204.097 393.709C210.442 372.731 217.462 355.889 224.75 344.351C228.395 338.582 232.061 334.21 235.681 331.31C239.288 328.417 242.764 327.047 246.103 327.089C249.44 327.128 252.742 328.577 255.98 331.553C259.231 334.537 262.343 338.989 265.259 344.837C271.091 356.535 275.987 373.52 279.691 394.616C287.096 436.781 289.676 495.02 285.644 559.323C281.61 623.624 271.735 681.712 259.056 723.638C252.711 744.613 245.693 761.456 238.405 772.994C234.76 778.765 231.093 783.135 227.475 786.035C223.866 788.927 220.39 790.297 217.053 790.256Z" stroke="#DDDDDD" stroke-width="1.5"/>
<path opacity="0.413793" d="M196.097 791.048C192.784 790.726 189.637 788.998 186.689 785.747C183.733 782.489 181.042 777.771 178.676 771.671C173.942 759.476 170.615 742.064 168.843 720.643C165.304 677.822 168.014 619.324 177.836 555.318C187.659 491.312 202.721 434.014 219.109 393.129C227.304 372.672 235.8 356.409 244.084 345.478C248.225 340.011 252.263 335.945 256.118 333.347C259.963 330.755 263.54 329.679 266.852 330.001C270.166 330.323 273.308 332.052 276.259 335.302C279.216 338.562 281.903 343.278 284.27 349.377C289.004 361.573 292.334 378.985 294.104 400.408C297.643 443.227 294.935 501.725 285.113 565.731C275.29 629.737 260.226 687.037 243.841 727.922C235.642 748.377 227.147 764.64 218.864 775.573C214.724 781.04 210.686 785.104 206.829 787.702C202.984 790.292 199.408 791.37 196.097 791.048Z" stroke="#DDDDDD" stroke-width="1.5"/>
<path opacity="0.448276" d="M175.204 790.209C171.938 789.61 168.967 787.613 166.329 784.112C163.683 780.601 161.438 775.652 159.638 769.347C156.037 756.738 154.31 739.028 154.498 717.43C154.872 674.26 162.889 615.919 178.484 552.659C194.08 489.4 214.278 433.298 234.299 393.737C244.314 373.946 254.247 358.376 263.482 348.127C268.099 343.001 272.484 339.271 276.559 336.992C280.618 334.723 284.276 333.945 287.541 334.544C290.806 335.146 293.778 337.14 296.417 340.641C299.063 344.155 301.308 349.103 303.108 355.408C306.708 368.017 308.436 385.726 308.247 407.326C307.874 450.495 299.857 508.835 284.262 572.094C268.666 635.353 248.469 691.457 228.447 731.016C218.43 750.809 208.5 766.377 199.264 776.628C194.645 781.753 190.26 785.484 186.187 787.761C182.126 790.031 178.472 790.81 175.204 790.209Z" stroke="#DDDDDD" stroke-width="1.5"/>
<path opacity="0.482759" d="M154.567 787.716C151.371 786.841 148.596 784.593 146.289 780.865C143.977 777.127 142.192 771.982 140.978 765.517C138.545 752.587 138.444 734.702 140.601 713.086C144.914 669.881 158.219 612.119 179.516 550.066C200.814 488.012 226.039 433.514 249.577 395.568C261.355 376.583 272.661 361.822 282.789 352.328C287.854 347.584 292.56 344.214 296.82 342.274C301.07 340.339 304.78 339.867 307.977 340.74C311.17 341.615 313.947 343.863 316.253 347.593C318.566 351.329 320.348 356.474 321.565 362.941C323.998 375.871 324.099 393.754 321.943 415.37C317.626 458.577 304.324 516.337 283.025 578.39C261.729 640.444 236.504 694.944 212.964 732.888C201.188 751.873 189.88 766.634 179.754 776.128C174.689 780.874 169.983 784.244 165.722 786.182C161.472 788.117 157.763 788.591 154.567 787.716Z" stroke="#DDDDDD" stroke-width="1.5"/>
<path opacity="0.517241" d="M134.401 783.56C131.301 782.417 128.743 779.933 126.79 776.005C124.832 772.067 123.525 766.762 122.907 760.185C121.67 747.027 123.204 729.103 127.328 707.629C135.572 664.704 154.094 607.95 180.963 547.565C207.833 487.179 237.917 434.689 264.812 398.646C278.269 380.612 290.871 366.768 301.817 358.105C307.291 353.774 312.28 350.791 316.701 349.205C321.104 347.621 324.839 347.458 327.938 348.602C331.04 349.744 333.596 352.228 335.549 356.157C337.509 360.095 338.814 365.398 339.431 371.977C340.672 385.133 339.138 403.06 335.011 424.534C326.768 467.458 308.245 524.212 281.378 584.597C254.509 644.981 224.422 697.471 197.527 733.518C184.073 751.55 171.471 765.394 160.525 774.058C155.051 778.39 150.058 781.371 145.641 782.959C141.235 784.541 137.5 784.705 134.401 783.56Z" stroke="#DDDDDD" stroke-width="1.5"/>
<path opacity="0.551724" d="M114.903 777.762C111.923 776.358 109.607 773.654 108.024 769.556C106.434 765.446 105.622 760.023 105.608 753.379C105.583 740.093 108.749 722.261 114.817 701.087C126.948 658.766 150.568 603.446 182.822 545.186C215.077 486.925 249.808 436.846 279.86 402.973C294.896 386.028 308.698 373.21 320.38 365.443C326.219 361.561 331.457 358.99 335.999 357.768C340.524 356.551 344.255 356.699 347.234 358.103C350.215 359.509 352.528 362.209 354.114 366.309C355.702 370.418 356.513 375.844 356.528 382.487C356.555 395.771 353.389 413.606 347.319 434.777C335.189 477.099 311.571 532.418 279.313 590.679C247.061 648.94 212.328 699.021 182.275 732.892C167.242 749.837 153.439 762.656 141.758 770.422C135.916 774.306 130.678 776.876 126.138 778.097C121.611 779.314 117.88 779.166 114.903 777.762Z" stroke="#DDDDDD" stroke-width="1.5"/>
<path opacity="0.586207" d="M96.2451 770.364C93.4105 768.708 91.3565 765.807 90.1555 761.566C88.9531 757.314 88.6417 751.812 89.2372 745.153C90.428 731.837 95.209 714.229 103.183 693.518C119.119 652.12 147.672 598.655 185.078 542.961C222.484 487.269 261.607 439.983 294.588 408.546C311.089 392.821 325.987 381.127 338.314 374.319C344.475 370.915 349.92 368.777 354.546 367.933C359.158 367.09 362.855 367.551 365.686 369.205C368.521 370.861 370.575 373.763 371.776 378.004C372.978 382.255 373.289 387.758 372.694 394.418C371.504 407.734 366.723 425.338 358.749 446.053C342.812 487.451 314.26 540.916 276.854 596.608C239.449 652.3 200.326 699.588 167.344 731.023C150.843 746.75 135.945 758.443 123.619 765.25C117.456 768.654 112.011 770.792 107.385 771.638C102.773 772.479 99.0776 772.02 96.2451 770.364Z" stroke="#DDDDDD" stroke-width="1.5"/>
<path opacity="0.62069" d="M78.5858 761.423C75.9213 759.528 74.1456 756.448 73.3415 752.099C72.5339 747.736 72.7294 742.196 73.9307 735.572C76.3351 722.324 82.7006 705.076 92.5214 684.985C112.155 644.821 145.43 593.618 187.713 540.922C229.995 488.225 273.209 444.096 308.871 415.343C326.713 400.957 342.592 390.481 355.468 384.687C361.904 381.791 367.511 380.101 372.188 379.64C376.85 379.181 380.48 379.951 383.144 381.847C385.81 383.744 387.587 386.824 388.39 391.172C389.196 395.534 389.002 401.074 387.799 407.7C385.398 420.946 379.03 438.194 369.209 458.287C349.576 498.449 316.3 549.653 274.018 602.348C231.737 655.045 188.521 699.176 152.859 727.929C135.017 742.313 119.138 752.789 106.263 758.583C99.8253 761.481 94.2187 763.169 89.5433 763.63C84.8815 764.089 81.2504 763.321 78.5858 761.423Z" stroke="#DDDDDD" stroke-width="1.5"/>
<path opacity="0.655172" d="M62.0674 751.021C59.5933 748.899 58.1089 745.663 57.7103 741.236C57.308 736.796 58.0095 731.259 59.8106 724.718C63.4106 711.641 71.3164 694.883 82.9157 675.562C106.102 636.943 143.857 588.393 190.698 539.1C237.537 489.805 284.521 449.177 322.593 423.331C341.638 410.402 358.375 401.227 371.698 396.493C378.362 394.126 384.086 392.9 388.775 392.83C393.45 392.756 396.987 393.833 399.462 395.955C401.935 398.079 403.42 401.314 403.818 405.74C404.221 410.182 403.519 415.719 401.717 422.26C398.117 435.339 390.211 452.095 378.612 471.416C355.426 510.035 317.671 558.585 270.83 607.878C223.99 657.171 177.007 697.801 138.936 723.645C119.892 736.574 103.153 745.751 89.8301 750.485C83.1665 752.852 77.4416 754.078 72.7535 754.148C68.0785 754.22 64.5415 753.145 62.0674 751.021Z" stroke="#DDDDDD" stroke-width="1.5"/>
<path opacity="0.689655" d="M46.8161 739.238C44.5546 736.904 43.3768 733.536 43.3826 729.065C43.3916 724.581 44.5956 719.087 46.9815 712.681C51.7578 699.871 61.1459 683.73 74.4378 665.329C101.009 628.547 142.961 583.027 194.008 537.52C245.054 492.012 295.448 455.204 335.635 432.472C355.739 421.099 373.207 413.296 386.876 409.662C393.714 407.846 399.514 407.097 404.177 407.416C408.827 407.736 412.243 409.106 414.506 411.442C416.77 413.779 417.947 417.145 417.94 421.616C417.933 426.101 416.729 431.597 414.34 438.001C409.565 450.812 400.178 466.952 386.885 485.352C360.315 522.135 318.361 567.655 267.314 613.163C216.268 658.67 165.876 695.479 125.69 718.211C105.584 729.583 88.1148 737.386 74.4456 741.019C67.611 742.835 61.8092 743.585 57.1468 743.265C52.4954 742.946 49.0796 741.575 46.8161 739.238Z" stroke="#DDDDDD" stroke-width="1.5"/>
<path opacity="0.724138" d="M32.9573 726.172C30.9217 723.641 30.0611 720.167 30.4771 715.684C30.894 711.187 32.5923 705.78 35.5502 699.556C41.4659 687.109 52.2663 671.71 67.1555 654.37C96.9126 619.708 142.746 577.571 197.613 536.206C252.481 494.84 305.903 462.141 347.901 442.706C368.91 432.983 386.975 426.618 400.884 424.12C407.839 422.869 413.671 422.6 418.273 423.311C422.863 424.019 426.13 425.68 428.164 428.211C430.2 430.742 431.061 434.218 430.645 438.701C430.225 443.196 428.526 448.603 425.569 454.829C419.656 467.275 408.852 482.674 393.966 500.013C364.209 534.676 318.373 576.814 263.508 618.179C208.642 659.543 155.218 692.242 113.221 711.677C92.2113 721.4 74.1473 727.765 60.2369 730.265C53.2817 731.516 47.4507 731.783 42.848 731.074C38.2585 730.364 34.9908 728.703 32.9573 726.172Z" stroke="#DDDDDD" stroke-width="1.5"/>
<path opacity="0.758621" d="M20.5892 711.929C18.8013 709.222 18.2635 705.665 19.0862 701.203C19.9121 696.73 22.0942 691.447 25.5997 685.453C32.6131 673.465 44.7474 658.924 61.1188 642.778C93.8401 610.506 143.212 572.08 201.483 535.183C259.756 498.289 315.803 469.964 359.287 453.985C381.042 445.99 399.564 441.119 413.608 439.776C420.631 439.105 426.444 439.322 430.951 440.419C435.445 441.513 438.538 443.453 440.325 446.162C442.116 448.871 442.654 452.428 441.832 456.889C441.006 461.363 438.824 466.645 435.318 472.639C428.305 484.627 416.169 499.167 399.798 515.313C367.078 547.585 317.706 586.012 259.432 622.908C201.161 659.804 145.115 688.127 101.63 704.106C79.8746 712.102 61.3526 716.972 47.3099 718.317C40.2864 718.988 34.4716 718.769 29.9667 717.671C25.4726 716.576 22.3795 714.638 20.5892 711.929Z" stroke="#DDDDDD" stroke-width="1.5"/>
<path opacity="0.793103" d="M9.81484 696.616C8.28486 693.749 8.07564 690.136 9.29923 685.73C10.5281 681.311 13.1768 676.195 17.2058 670.475C25.2638 659.038 38.6421 645.469 56.3737 630.643C91.8137 601.011 144.351 566.6 205.587 534.47C266.823 502.34 325.067 478.624 369.707 466.238C392.042 460.039 410.881 456.705 424.949 456.532C431.984 456.448 437.738 457.155 442.114 458.633C446.477 460.105 449.372 462.312 450.898 465.178C452.428 468.045 452.639 471.658 451.415 476.064C450.185 480.483 447.538 485.599 443.507 491.319C435.451 502.756 422.071 516.325 404.339 531.151C368.899 560.783 316.363 595.193 255.127 627.323C193.891 659.453 135.647 683.172 91.0057 695.558C68.6726 701.755 49.8336 705.089 35.7648 705.262C28.7293 705.346 22.9754 704.641 18.5995 703.161C14.2389 701.687 11.3426 699.482 9.81484 696.616Z" stroke="#DDDDDD" stroke-width="1.5"/>
<path opacity="0.827586" d="M0.710602 680.349C-0.546538 677.343 -0.426031 673.7 1.19252 669.382C2.81412 665.051 5.90971 660.141 10.4334 654.739C19.4762 643.939 33.9977 631.445 52.9549 618.059C90.8483 591.3 146.154 561.182 209.889 534.083C273.625 506.983 333.621 488.075 379.08 479.394C401.823 475.049 420.833 473.287 434.819 474.295C441.814 474.799 447.462 475.992 451.672 477.842C455.87 479.687 458.543 482.143 459.799 485.149C461.057 488.153 460.937 491.794 459.319 496.114C457.697 500.447 454.601 505.355 450.077 510.757C441.034 521.557 426.514 534.051 407.556 547.438C369.662 574.196 314.356 604.314 250.621 631.413C186.885 658.514 126.889 677.423 81.4296 686.102C58.6872 690.446 39.6781 692.212 25.691 691.202C18.6973 690.698 13.049 689.506 8.83759 687.654C4.64134 685.809 1.96776 683.354 0.710602 680.349Z" stroke="#DDDDDD" stroke-width="1.5"/>
<path opacity="0.862069" d="M-6.65189 663.246C-7.62828 660.123 -7.17488 656.476 -5.1763 652.279C-3.17245 648.067 0.348218 643.399 5.33108 638.359C15.2923 628.279 30.8473 616.961 50.8887 605.12C90.9484 581.45 148.604 555.874 214.355 534.038C280.104 512.203 341.399 498.272 387.326 493.385C410.305 490.939 429.342 490.77 443.139 492.959C450.036 494.055 455.539 495.727 459.551 497.938C463.549 500.144 465.981 502.834 466.958 505.955C467.932 509.078 467.48 512.725 465.482 516.922C463.475 521.134 459.954 525.802 454.974 530.842C445.011 540.922 429.459 552.24 409.417 564.082C369.357 587.75 311.701 613.327 245.95 635.162C180.2 656.998 118.904 670.928 72.9786 675.815C50.0011 678.26 30.9637 678.433 17.1676 676.242C10.2695 675.148 4.76663 673.475 0.754779 671.263C-3.24412 669.056 -5.67551 666.367 -6.65189 663.246Z" stroke="#DDDDDD" stroke-width="1.5"/>
<path opacity="0.896552" d="M-12.2083 645.421C-12.8938 642.204 -12.1134 638.581 -9.74973 634.534C-7.3764 630.477 -3.45708 626.087 1.94499 621.446C12.7513 612.166 29.2214 602.116 50.1945 591.919C92.1177 571.536 151.683 550.726 218.95 534.353C286.215 517.981 348.338 509.17 394.384 508.14C417.42 507.623 436.34 509.062 449.838 512.424C456.588 514.105 461.9 516.249 465.684 518.809C469.455 521.361 471.625 524.266 472.309 527.485C472.995 530.701 472.218 534.325 469.852 538.371C467.478 542.428 463.561 546.818 458.156 551.459C447.351 560.74 430.881 570.789 409.907 580.986C367.987 601.369 308.419 622.179 241.153 638.552C173.89 654.926 111.765 663.736 65.7187 664.765C42.682 665.28 23.7645 663.845 10.2641 660.481C3.51281 658.8 -1.79799 656.656 -5.5796 654.097C-9.35278 651.544 -11.5228 648.639 -12.2083 645.421Z" stroke="#DDDDDD" stroke-width="1.5"/>
<path opacity="0.931035" d="M-15.9058 627.003C-16.2971 623.714 -15.1954 620.141 -12.4817 616.279C-9.75842 612.405 -5.47137 608.33 0.312052 604.127C11.8788 595.724 29.1405 587.029 50.8857 578.565C94.3487 561.649 155.371 545.798 223.634 535.054C291.897 524.308 354.375 520.722 400.183 523.588C423.101 525.02 441.754 528.064 454.855 532.584C461.405 534.845 466.484 537.448 470.009 540.338C473.521 543.22 475.414 546.322 475.803 549.61C476.194 552.897 475.094 556.47 472.378 560.333C469.656 564.206 465.37 568.283 459.583 572.485C448.017 580.887 430.758 589.583 409.012 598.046C365.548 614.963 304.528 630.815 236.264 641.56C168 652.304 105.524 655.889 59.7142 653.024C36.7948 651.591 18.1437 648.547 5.04414 644.027C-1.50679 641.767 -6.58556 639.164 -10.1107 636.273C-13.6252 633.391 -15.5167 630.29 -15.9058 627.003Z" stroke="#DDDDDD" stroke-width="1.5"/>
</g>
</g>
</g>
<defs>
<clipPath id="clip0_2611_767">
<rect width="522" height="522" fill="white"/>
</clipPath>
</defs>
</svg>
