<svg width="520" height="520" viewBox="0 0 520 520" fill="none" xmlns="http://www.w3.org/2000/svg">
<g clip-path="url(#clip0_9_277)">
<path d="M272.833 479.787H270.613L265.813 461.187L261.193 479.787H258.823L254.173 461.187L249.373 479.787H247.153L252.883 458.487H255.523L259.993 475.977L264.463 458.487H267.103L272.833 479.787Z" fill="black"/>
<path d="M247.117 457.784L244.89 478.967L242.861 478.754L243.855 469.296L232.757 468.13L231.763 477.587L229.734 477.374L231.96 456.191L233.989 456.404L232.964 466.16L244.062 467.327L245.088 457.571L247.117 457.784Z" fill="black"/>
<path d="M228.195 455.556L216.166 474.776L213.554 474.22L210.383 451.77L212.554 452.232L213.456 458.956L222.494 460.877L226.023 455.095L228.195 455.556ZM221.378 462.665L213.719 461.037L215.255 472.711L221.378 462.665Z" fill="black"/>
<path d="M186.49 466.411L187.102 464.528L193.607 466.641L199.578 448.267L201.518 448.897L195.548 467.272L202.053 469.385L201.441 471.269L186.49 466.411Z" fill="black"/>
<path d="M153.348 450.874L151.581 449.854L162.231 431.408L163.998 432.428L153.348 450.874Z" fill="black"/>
<path d="M116.588 424.456C111.773 420.12 111.645 414.837 116.221 409.754C120.778 404.693 125.958 404.231 130.707 408.506L135.612 412.923L121.359 428.752L116.588 424.456ZM132.771 413.029L129.516 410.098C125.614 406.585 121.598 406.966 117.804 411.179C113.97 415.438 114.012 419.471 117.913 422.984L121.168 425.915L132.771 413.029Z" fill="black"/>
<path d="M115.045 392.16C118.939 396.485 118.2 402.075 113.139 406.632C108.034 411.229 102.397 411.379 98.5025 407.054C94.6081 402.729 95.3673 397.161 100.473 392.564C105.533 388.007 111.151 387.834 115.045 392.16ZM111.714 405.049C115.972 401.215 116.663 396.96 113.551 393.504C110.46 390.071 106.156 390.313 101.898 394.147C97.6174 398.001 96.9048 402.276 99.9962 405.709C103.108 409.165 107.434 408.903 111.714 405.049Z" fill="black"/>
<path d="M85.4492 369.082L80.6642 360.794L82.275 359.864L87.06 368.152L85.4492 369.082Z" fill="black"/>
<path d="M58.0438 340.456L57.3578 338.345L73.5642 328.032L54.4469 329.386L53.7145 327.132L69.9672 316.961L50.7943 318.144L50.1083 316.033L72.1365 314.9L72.9523 317.411L57.6996 327.067L75.7149 325.913L76.5307 328.424L58.0438 340.456Z" fill="black"/>
<path d="M70.7179 309.264L49.8834 313.692L49.4593 311.697L58.7614 309.719L56.4412 298.803L47.139 300.781L46.7148 298.785L67.5494 294.357L67.9735 296.352L58.3779 298.392L60.6982 309.308L70.2938 307.268L70.7179 309.264Z" fill="black"/>
<path d="M66.9893 290.579L44.9938 285.078L44.7147 282.423L65.0858 272.469L65.3179 274.677L59.2012 277.612L60.1671 286.802L66.7572 288.371L66.9893 290.579ZM58.1226 286.293L57.3042 278.505L46.6758 283.574L58.1226 286.293Z" fill="black"/>
<path d="M43.1869 254.129H45.1669V260.969H64.4869L64.4869 263.009H45.1669V269.849H43.1869V254.129Z" fill="black"/>
<path d="M48.3136 217.949L48.7377 215.954L69.5723 220.382L69.1481 222.378L48.3136 217.949Z" fill="black"/>
<path d="M62.0794 174.825C64.715 168.905 69.6995 167.151 75.9482 169.933C82.1694 172.703 84.2102 177.486 81.6111 183.324L78.9267 189.353L59.4681 180.69L62.0794 174.825ZM77.9476 186.684L79.7291 182.683C81.8644 177.887 80.2616 174.185 75.0818 171.879C69.8472 169.548 66.0236 170.834 63.8882 175.63L62.1067 179.631L77.9476 186.684Z" fill="black"/>
<path d="M92.3179 163.377C89.4079 168.417 83.8627 169.442 77.9651 166.037C72.0155 162.602 70.1302 157.287 73.0402 152.247C75.9502 147.206 81.4805 146.208 87.4301 149.643C93.3277 153.048 95.2279 158.336 92.3179 163.377ZM79.0301 164.192C83.9924 167.057 88.2522 166.399 90.5772 162.372C92.8872 158.371 91.3274 154.352 86.3651 151.487C81.3768 148.607 77.0909 149.251 74.7809 153.252C72.4559 157.279 74.0418 161.312 79.0301 164.192Z" fill="black"/>
<path d="M105.121 128.098L111.524 120.986L112.907 122.231L106.503 129.343L105.121 128.098Z" fill="black"/>
<path d="M123.877 93.1882L125.673 91.8833L140.489 104.11L133.294 86.3463L135.211 84.9533L149.906 97.2678L142.856 79.3987L144.652 78.0938L152.536 98.6939L150.401 100.246L136.504 88.7234L143.168 105.5L141.032 107.052L123.877 93.1882Z" fill="black"/>
<path d="M157.459 95.603L146.809 77.1567L148.576 76.1367L153.331 84.3726L162.996 78.7926L158.241 70.5567L160.007 69.5367L170.657 87.983L168.891 89.003L163.986 80.5073L154.321 86.0873L159.226 94.583L157.459 95.603Z" fill="black"/>
<path d="M174.076 86.2832L172.511 63.6643L174.95 62.5783L190.712 78.8765L188.684 79.7794L184.002 74.8692L175.561 78.6275L176.104 85.3802L174.076 86.2832ZM175.413 76.5258L182.566 73.3411L174.461 64.7992L175.413 76.5258Z" fill="black"/>
<path d="M201.436 52.9884L202.048 54.8714L195.543 56.9851L201.513 75.3595L199.573 75.9899L193.602 57.6155L187.097 59.7292L186.485 57.8461L201.436 52.9884Z" fill="black"/>
<path d="M237.381 46.0774L239.41 45.8642L241.636 67.0475L239.607 67.2607L237.381 46.0774Z" fill="black"/>
<path d="M282.648 45.8435C289.093 46.5208 292.302 50.7192 291.587 57.5217C290.875 64.2944 286.956 67.7135 280.601 67.0456L274.037 66.3557L276.264 45.1724L282.648 45.8435ZM276.273 64.5998L280.629 65.0576C285.85 65.6064 288.876 62.938 289.468 57.2991C290.067 51.6005 287.663 48.3614 282.441 47.8126L278.085 47.3548L276.273 64.5998Z" fill="black"/>
<path d="M302.88 71.0644C297.187 69.8544 294.499 64.8972 295.915 58.236C297.344 51.5161 301.816 48.0808 307.508 49.2909C313.201 50.5009 315.86 55.4519 314.432 62.1718C313.016 68.833 308.573 72.2745 302.88 71.0644ZM297.999 58.6789C296.807 64.2836 298.75 68.1316 303.298 69.0984C307.817 70.0589 311.157 67.3337 312.348 61.7289C313.546 56.0948 311.61 52.2175 307.091 51.257C302.542 50.2902 299.196 53.0447 297.999 58.6789Z" fill="black"/>
<path d="M340.389 72.339L349.131 76.2314L348.375 77.9306L339.632 74.0382L340.389 72.339Z" fill="black"/>
<path d="M379.386 79.3891L381.182 80.694L374.132 98.5631L388.803 86.231L390.72 87.624L383.549 105.405L398.365 93.1786L400.161 94.4835L383.006 108.348L380.87 106.796L387.534 90.0186L373.637 101.541L371.502 99.9892L379.386 79.3891Z" fill="black"/>
<path d="M387.467 112.074L401.719 96.2449L403.235 97.61L396.872 104.677L405.165 112.145L411.529 105.077L413.045 106.442L398.792 122.271L397.276 120.906L403.84 113.616L395.547 106.149L388.983 113.439L387.467 112.074Z" fill="black"/>
<path d="M401.466 124.998L422.494 116.52L424.28 118.504L413.65 138.531L412.165 136.881L415.388 130.911L409.205 124.044L402.951 126.648L401.466 124.998ZM411.158 123.254L416.398 129.073L422.017 118.725L411.158 123.254Z" fill="black"/>
<path d="M441.585 140.73L439.983 141.894L435.963 136.36L420.333 147.716L419.134 146.066L434.764 134.71L430.743 129.176L432.345 128.012L441.585 140.73Z" fill="black"/>
<path d="M459.266 172.78L460.095 174.644L440.637 183.307L439.807 181.443L459.266 172.78Z" fill="black"/>
<path d="M473.476 215.76C474.824 222.098 471.822 226.447 465.132 227.869C458.471 229.285 454.008 226.614 452.679 220.364L451.307 213.908L472.142 209.48L473.476 215.76ZM453.668 215.492L454.579 219.776C455.67 224.912 459.143 226.964 464.689 225.786C470.294 224.594 472.631 221.306 471.54 216.171L470.629 211.887L453.668 215.492Z" fill="black"/>
<path d="M455.742 242.795C455.134 237.007 459.018 232.919 465.79 232.207C472.623 231.489 477.272 234.68 477.88 240.468C478.488 246.256 474.601 250.315 467.769 251.033C460.996 251.745 456.35 248.583 455.742 242.795ZM466.013 234.325C460.314 234.924 457.255 237.961 457.741 242.585C458.224 247.18 461.848 249.514 467.546 248.915C473.275 248.313 476.364 245.273 475.881 240.678C475.395 236.054 471.741 233.723 466.013 234.325Z" fill="black"/>
<path d="M466.12 278.862L465.12 288.379L463.27 288.185L464.271 278.667L466.12 278.862Z" fill="black"/>
<path d="M471.466 318.129L470.78 320.24L451.607 319.057L467.869 329.199L467.137 331.453L448.01 330.128L464.217 340.44L463.531 342.552L445.044 330.52L445.859 328.009L463.875 329.163L448.622 319.507L449.438 316.996L471.466 318.129Z" fill="black"/>
<path d="M442.878 335.914L462.337 344.577L461.507 346.441L452.819 342.573L448.28 352.768L456.968 356.636L456.138 358.5L436.679 349.836L437.509 347.973L446.471 351.963L451.01 341.768L442.048 337.778L442.878 335.914Z" fill="black"/>
<path d="M434.912 353.221L449.474 370.601L448.139 372.913L425.807 368.992L426.917 367.069L433.591 368.29L438.211 360.288L433.802 355.144L434.912 353.221ZM439.566 361.901L435.651 368.682L447.229 370.829L439.566 361.901Z" fill="black"/>
<path d="M432.348 396.239L430.746 395.075L434.767 389.541L419.137 378.185L420.336 376.535L435.966 387.891L439.986 382.357L441.588 383.521L432.348 396.239Z" fill="black"/>
<path d="M407.33 422.958L405.814 424.323L391.562 408.494L393.078 407.129L407.33 422.958Z" fill="black"/>
<path d="M370.846 449.755C365.234 452.995 360.17 451.484 356.75 445.561C353.345 439.663 354.506 434.594 360.04 431.399L365.756 428.099L376.406 446.545L370.846 449.755ZM364.979 430.833L361.186 433.023C356.639 435.648 355.76 439.585 358.595 444.496C361.46 449.458 365.309 450.665 369.856 448.04L373.649 445.85L364.979 430.833Z" fill="black"/>
<path d="M339.653 441.243C344.97 438.876 350.059 441.306 352.828 447.527C355.623 453.803 354.024 459.211 348.707 461.578C343.39 463.946 338.329 461.503 335.535 455.227C332.765 449.006 334.336 443.61 339.653 441.243ZM350.883 448.394C348.552 443.159 344.719 441.188 340.471 443.079C336.25 444.958 335.15 449.126 337.481 454.36C339.824 459.623 343.669 461.621 347.89 459.742C352.138 457.851 353.225 453.656 350.883 448.394Z" fill="black"/>
<path d="M299.197 464.203L298.709 461.91L308.046 459.926L308.534 462.218L299.197 464.203Z" fill="black"/>
</g>
<defs>
<clipPath id="clip0_9_277">
<rect width="520" height="520" fill="white"/>
</clipPath>
</defs>
</svg>
