<svg width="48" height="48" viewBox="0 0 48 48" fill="none" xmlns="http://www.w3.org/2000/svg">
<path fill-rule="evenodd" clip-rule="evenodd" d="M24 48C37.2522 48 48 37.2597 48 24C48 10.7403 37.2522 0 24 0C10.7478 0 0 10.7403 0 24C0 37.2597 10.7478 48 24 48ZM12.1522 28.4526L15.5929 7.32203L20.6634 13.1806C21.8663 14.4446 23.6384 15.4188 26.1607 15.4583H28.5925C28.7865 15.4451 28.9805 15.4451 29.1615 15.4451C36.1205 15.4451 38.617 18.9077 37.233 27.4389C36.1077 34.3771 31.671 38.8534 25.6433 39.0509H24.6602H20.5598C13.0576 39.0509 11.4407 34.0216 12.1522 28.4526ZM29.4924 27.2542C28.9794 30.4054 26.927 32.5424 24.321 32.5424C21.7962 32.5424 20.3919 30.3919 20.905 27.2542C21.4181 24.103 23.5109 21.9661 26.0358 21.9661C28.6553 21.9661 30.0055 24.103 29.4924 27.2542Z" fill="#07B98A"/>
</svg>
