<?xml version="1.0" encoding="utf-8"?>
<!-- Generator: Adobe Illustrator 24.1.2, SVG Export Plug-In . SVG Version: 6.00 Build 0)  -->
<svg version="1.1" id="Layer_1" xmlns="http://www.w3.org/2000/svg" xmlns:xlink="http://www.w3.org/1999/xlink" x="0px" y="0px"
	 viewBox="0 0 200 82.5" style="enable-background:new 0 0 200 82.5;" xml:space="preserve">
<style type="text/css">
	.st0{fill:#00DC8E;}
</style>
<g>
	<g>
		<g>
			<g>
				<g>
					<g>
						<polygon class="st0" points="4.5,22.2 19.1,25.1 18.1,22.2 						"/>
					</g>
					<g>
						<polygon class="st0" points="103.8,22.1 96.5,34.9 88.8,22.1 76,22.1 84.1,36.5 106.8,40.3 116.6,22.1 						"/>
					</g>
					<g>
						<path class="st0" d="M188.7,22.1l-23.7,0l-27.1,0v0c-11.2,0.2-20.9,8.9-22,20l10.9,1.9c0.1-6.3,5.2-11.4,11.4-11.5l43.1,0
							l-12.3,18.8l11.6,2.1l15-22.4l0-8.9L188.7,22.1z"/>
					</g>
					<g>
						<polygon class="st0" points="37,28 69.7,34 69.7,22.1 39.1,22.1 						"/>
					</g>
					<g>
						<rect x="58.3" y="11.3" class="st0" width="11.4" height="6"/>
					</g>
				</g>
			</g>
			<g>
				<g>
					<path class="st0" d="M148.7,38.4c1,1.7,1.6,3.7,1.6,5.8c0,1.3-0.2,2.6-0.6,3.8l10.8,1.9c0.5-1.8,0.8-3.8,0.8-5.8
						c0-2-0.3-4-0.8-5.8L148.7,38.4z"/>
					<polygon class="st0" points="57.7,68.6 69.7,68.6 69.7,36.4 57.7,34.3 					"/>
					<polygon class="st0" points="105.5,42.7 84.9,39.1 89.1,45.9 74.7,68.6 88.1,68.6 96.5,54.3 104.8,68.6 117.7,68.6 103.7,45.7 
											"/>
					<path class="st0" d="M138.1,58.1c-6.3,0-11.5-5.1-11.5-11.5c0,0,0-0.1,0-0.1l-10.9-1.9c-0.1,0.7-0.1,1.4-0.1,2.1
						c0,12.2,10.4,22,22.5,22c10.1,0,19-6.9,21.6-16.2l-10.8-1.9C147.3,54.9,143.1,58.1,138.1,58.1z"/>
					<polygon class="st0" points="19.5,27.5 5.1,24.9 21.9,68.6 35,68.6 28.4,52.5 					"/>
					<polygon class="st0" points="30,48.2 35,68.6 48.8,32.7 36.3,30.5 					"/>
					<polygon class="st0" points="179.6,55.9 167.9,53.8 163.7,59.7 163.7,68.6 169,68.6 177.9,58.4 					"/>
					<polygon class="st0" points="193.8,58.4 182.6,58.4 169,68.6 196,68.6 196,58.4 					"/>
				</g>
			</g>
		</g>
	</g>
</g>
</svg>
