<?xml version="1.0" encoding="utf-8"?>
<!-- Generator: Adobe Illustrator 24.1.2, SVG Export Plug-In . SVG Version: 6.00 Build 0)  -->
<svg version="1.1" id="Layer_1" xmlns="http://www.w3.org/2000/svg" xmlns:xlink="http://www.w3.org/1999/xlink" x="0px" y="0px"
	 viewBox="0 0 200 83" style="enable-background:new 0 0 200 83;" xml:space="preserve">
<style type="text/css">
	.st0{fill:#FFFFFF;}
</style>
<g>
	<g>
		<g>
			<g>
				<g>
					<polygon class="st0" points="1.6,23.7 16.5,26.7 15.5,23.7 					"/>
					<polygon class="st0" points="103.4,23.7 96,36.8 88.1,23.7 74.9,23.7 83.2,38.4 106.5,42.4 116.5,23.7 					"/>
					<path class="st0" d="M190.5,23.7l-24.3,0l-27.8,0v0c-11.5,0.2-21.4,9.2-22.5,20.5l11.2,2c0.1-6.5,5.3-11.7,11.7-11.8l44.2,0
						l-12.6,19.3l11.9,2.1l15.4-23l0-9.2L190.5,23.7z"/>
					<polygon class="st0" points="34.8,29.7 68.4,35.8 68.4,23.7 37,23.7 					"/>
					<rect x="56.8" y="12.6" class="st0" width="11.7" height="6.2"/>
				</g>
			</g>
			<g>
				<g>
					<path class="st0" d="M149.4,40.4c1,1.8,1.6,3.8,1.6,6c0,1.4-0.2,2.7-0.7,3.9l11.1,2c0.5-1.9,0.8-3.9,0.8-5.9
						c0-2.1-0.3-4.1-0.8-6L149.4,40.4z"/>
					<polygon class="st0" points="56.1,71.4 68.4,71.4 68.4,38.3 56.1,36.1 					"/>
					<polygon class="st0" points="105.2,44.8 84,41.1 88.4,48.1 73.6,71.4 87.4,71.4 95.9,56.7 104.4,71.4 117.7,71.4 103.4,47.9 
											"/>
					<path class="st0" d="M138.6,60.6c-6.5,0-11.8-5.3-11.8-11.8c0,0,0-0.1,0-0.1l-11.2-2c-0.1,0.7-0.1,1.4-0.1,2.1
						c0,12.5,10.7,22.6,23.1,22.6c10.3,0,19.5-7.1,22.2-16.7l-11.1-2C148.1,57.3,143.7,60.6,138.6,60.6z"/>
					<polygon class="st0" points="16.9,29.2 2.1,26.6 19.4,71.4 32.8,71.4 26.1,54.9 					"/>
					<polygon class="st0" points="27.7,50.4 32.8,71.4 47,34.5 34.2,32.2 					"/>
					<polygon class="st0" points="181.2,58.3 169.1,56.2 164.8,62.3 164.8,71.4 170.3,71.4 179.4,60.9 					"/>
					<polygon class="st0" points="195.8,60.9 184.3,60.9 170.3,71.4 198,71.4 198,60.9 					"/>
				</g>
			</g>
		</g>
	</g>
</g>
</svg>
