<svg width="879" height="509" viewBox="0 0 879 509" fill="none" xmlns="http://www.w3.org/2000/svg">
<mask id="path-1-inside-1_2142_176" fill="white">
<path d="M0 358.061C94.5609 306.496 229.288 294.674 302.947 339.196C376.606 383.717 452.532 491.996 299.547 508.606C146.563 525.216 333.922 11.3191 879 0"/>
</mask>
<path d="M302.947 339.196L302.43 340.052V340.052L302.947 339.196ZM0.478753 358.939C47.6228 333.231 104.803 317.42 159.382 313.593C213.978 309.765 265.842 317.937 302.43 340.052L303.464 338.34C266.392 315.933 214.063 307.755 159.242 311.598C104.401 315.443 46.9381 331.326 -0.478753 357.183L0.478753 358.939ZM302.43 340.052C320.763 351.133 339.244 366.186 354.263 382.784C369.292 399.393 380.795 417.481 385.271 434.621C389.735 451.713 387.21 467.803 374.272 480.68C361.266 493.626 337.599 503.469 299.439 507.612L299.655 509.6C337.988 505.438 362.2 495.517 375.683 482.098C389.234 468.611 391.808 451.734 387.206 434.115C382.617 416.544 370.888 398.176 355.746 381.442C340.593 364.697 321.961 349.52 303.464 338.34L302.43 340.052ZM299.439 507.612C280.618 509.655 267.205 503.55 258.994 491.424C250.728 479.217 247.617 460.737 249.89 437.834C254.434 392.056 280.442 329.192 328.3 265.376C423.986 137.785 606.819 6.65234 879.021 0.999784L878.979 -0.999784C606.103 4.66677 422.717 136.142 326.7 264.176C278.707 328.173 252.492 391.377 247.9 437.637C245.605 460.753 248.697 479.784 257.338 492.546C266.034 505.388 280.23 511.709 299.655 509.6L299.439 507.612Z" fill="#3D3D3D" fill-opacity="0.17" mask="url(#path-1-inside-1_2142_176)"/>
</svg>
