<svg width="66" height="72" viewBox="0 0 66 72" fill="none" xmlns="http://www.w3.org/2000/svg">
<g clip-path="url(#clip0_2142_191)">
<path fill-rule="evenodd" clip-rule="evenodd" d="M43.9174 67.1907C50.258 65.5719 56.7088 64.4158 63.2184 63.7315C63.5404 63.6833 63.869 63.7005 64.1842 63.7821C64.4994 63.8637 64.7947 64.008 65.0524 64.2064C65.31 64.4048 65.5246 64.6531 65.6833 64.9363C65.842 65.2195 65.9414 65.5318 65.9755 65.8543C66.0628 66.4902 65.8946 67.1347 65.5074 67.6478C65.1202 68.161 64.5453 68.5012 63.9076 68.5948C57.6302 69.2401 51.4095 70.3488 45.297 71.9117C44.6671 72.0821 43.9953 72.0006 43.425 71.6846C42.8547 71.3686 42.431 70.8432 42.2444 70.2204C42.154 69.9121 42.1256 69.589 42.1608 69.2698C42.196 68.9505 42.2941 68.6413 42.4495 68.3599C42.6049 68.0784 42.8146 67.8303 43.0665 67.6297C43.3183 67.429 43.6075 67.2799 43.9174 67.1907Z" fill="#07B98A"/>
<path fill-rule="evenodd" clip-rule="evenodd" d="M24.8153 42.2246C34.9576 31.9187 46.3801 22.9394 56.3255 12.357C56.7711 11.889 57.3853 11.6164 58.0328 11.5992C58.6803 11.582 59.3082 11.8216 59.7783 12.2654C60.2484 12.7091 60.5221 13.3207 60.5394 13.9654C60.5567 14.6102 60.316 15.2354 59.8703 15.7034C49.925 26.3162 38.5025 35.3249 28.3602 45.6612C27.8898 46.1254 27.256 46.3882 26.5938 46.3937C25.9315 46.3992 25.2934 46.1469 24.8153 45.6906C24.3653 45.225 24.1139 44.6039 24.1139 43.9576C24.1139 43.3114 24.3653 42.6902 24.8153 42.2246Z" fill="#07B98A"/>
<path fill-rule="evenodd" clip-rule="evenodd" d="M5.80976 2.58454C5.51436 8.48314 5.21895 14.3821 4.92354 20.2813C4.91658 20.604 4.84392 20.922 4.70994 21.216C4.57597 21.5099 4.38348 21.7737 4.14412 21.9914C3.90477 22.2091 3.62353 22.3762 3.31743 22.4825C3.01134 22.5888 2.68676 22.6322 2.36334 22.61C1.7115 22.5713 1.10036 22.2815 0.659278 21.8021C0.218195 21.3226 -0.018219 20.6911 7.62939e-05 20.0411C0.295484 14.1327 0.590894 8.22494 0.886302 2.31784C0.936798 1.66195 1.24346 1.0519 1.74051 0.618571C2.23755 0.185241 2.88537 -0.0368397 3.54497 -2.3406e-05C4.18802 0.0475038 4.78636 0.345452 5.2103 0.829246C5.63423 1.31304 5.84962 1.9437 5.80976 2.58454Z" fill="#07B98A"/>
</g>
<defs>
<clipPath id="clip0_2142_191">
<rect width="66" height="72" fill="white" transform="matrix(-1 0 0 1 66 0)"/>
</clipPath>
</defs>
</svg>
